<?xml version="1.0" encoding="UTF-8"?>
<svg id="Capa_1" data-name="Capa 1" xmlns="http://www.w3.org/2000/svg" viewBox="0 0 500 500">
  <defs>
    <style>
      .cls-1 {
        fill: #15273e;
      }
    </style>
  </defs>
  <path class="cls-1" d="m42.28,171.24c12.31.08,24.62.04,36.94-.01,7.31-.03,12.47-4.34,13.27-10.92.82-6.76-3.35-12.78-10.2-14.72-.98-.83-2.17-.61-3.29-.61-11.8-.01-23.59,0-35.39.01-1.01,0-2.08-.22-2.95.55-7.6,1.09-11.47,6.19-10.92,14.41.43,6.33,5.75,11.25,12.55,11.3Z"/>
  <path class="cls-1" d="m241.66,453.79c-4.4-2.95-8.71-6.07-12-10.25-1.19-1.51-2.26-1.88-4.04-1.7-10.94,1.07-21.89,2.04-32.83,3.04-2.6-.24-5.19-.31-7.72.49-6.95.56-13.92.95-20.84,1.73-13.41,1.5-26.88,2.29-40.3,3.67-8.29.85-16.69,1.47-25.07,1.72-2.34-.02-4.67-.04-7.01-.07-2.88-.82-5.11-2.23-4.87-5.69.22-3.24,2.3-4.84,5.2-5.63.77-.21,1.56-.42,2.35-.49,10.43-.93,20.86-1.83,31.3-2.73,13.42-1.16,26.84-2.34,40.26-3.46,16.95-1.41,33.91-2.69,50.84-4.26,2.08-.19,4.65.18,6.33-1.84,1.03-3.24.45-6.55.44-9.83.7-8.38,4.24-15.15,11.29-19.96,1.16-.79,2.57-1.27,2.76-3.19.65-6.83,1.68-13.62,3.61-20.21,10.89-37.18,33.95-64.06,68.83-80.81,1.89-.91,2.89-2.08,3.16-4.06,1.2-8.92,7-13.64,15.04-16.05,7.52-2.25,15.3-3.1,23.12-3.59,3.97,0,7.94,0,11.91.01,3.8,0,7.64.03,11.33.89,2.66.62,3.24-.45,3.42-2.66.55-6.72,1.2-13.44,1.74-20.16.73-8.98,1.18-17.99,2.18-26.93.37-3.31.13-6.66.67-9.87,1.6-9.46,1.71-19.05,2.69-28.56.88-8.53,1.89-17.05,2.2-25.65.32-8.77,1.83-17.49,2.62-26.25.81-8.93,1.49-17.87,2.25-26.8.67-7.95,1.35-15.93,2.45-23.85.21-1.54-.63-3.81.75-4.47,1.66-.79,3.44.81,4.89,1.87,3.05,2.21,5.22,5.11,6.31,8.8.98,3.3.71,6.61.41,9.93-1.06,11.88-2.2,23.75-3.31,35.63-1.09,11.68-2.16,23.36-3.28,35.03-.43,4.43-1.05,8.84-1.47,13.27-.34,3.62-.43,7.26-.77,10.88-.61,6.3-1.39,12.59-1.99,18.89-.47,4.92-.78,9.85-1.14,14.78-.62,8.42-1.84,16.77-2.42,25.2-.47,6.96-.55,13.98-1.91,20.88-.4,2.06-.18,3.88,2.37,5.23,4.5,2.39,7.71,6.3,8.62,11.45.5,2.83,1.53,4.63,4.37,5.34,1.21.3,2.36.88,3.52,1.37,1.66.7,2.61.51,2.48-1.63-.1-1.6-.05-3.23.09-4.83,1.07-12.34,2.19-24.67,3.28-37.01,1.63-18.53,3.24-37.06,4.87-55.59.95-10.81,1.87-21.63,2.85-32.43.77-8.47,1.68-16.93,2.41-25.41,1.37-15.89,2.82-31.78,3.9-47.69.69-10.14-4.94-18.55-14.3-22.67-5.95-2.62-12.17-3.16-18.56-2.79-3.63.21-3.58.16-3.26-3.27.33-3.43.67-6.88.76-10.32.33-12.41-7.65-20.53-20.01-20.26-4.76.11-9.48.89-14.21,1.39-12.69,1.35-25.41,2.35-38.11,3.55-13.28,1.25-26.55,2.53-39.82,3.87-6.84.69-13.64,1.88-20.49,2.24-7.43.39-14.81,1.19-22.21,1.94-9.21.93-18.4,2.29-27.63,2.92-16.5,1.12-32.89,3.2-49.34,4.72-7.51.69-15,1.51-22.5,2.25-7.86.77-15.85.88-23.55,2.4-20.29,4-35.28,15.41-44.75,33.91-6.75,13.17-7.48,27.41-7.6,41.78-.02,1.75.68,2.08,2.26,2.03,4.14-.12,8.29-.1,12.43-.07,12.88.08,21.96,7.45,24.77,20.08.02,2.56.03,5.12.05,7.69-1.43,11.23-9.69,19.51-20.74,20.77-.76.29-1.54.29-2.32.27.77-.09,1.55-.13,2.32-.27-6.5.03-13.01-.62-19.48.46-1.35.37-2.11,1.05-2.04,2.65.39,8.81-.42,17.59-.59,26.39.28.58.77.8,1.37.8,5.53-.04,11.06-.08,16.59-.13,14.11-.47,23.08,10.87,24.17,20.08.02,2.59.04,5.18.06,7.77-1.09,11-10.17,19.8-21.42,20.74-.73.25-1.48.26-2.22.24.74-.09,1.48-.12,2.22-.24-2.64-.04-5.28-.19-7.91-.08-4.1.17-8.24-.67-12.29.49-2.45-.19-3.57.52-3.63,3.4-.17,8.27-.66,16.55-1.27,24.8-.18,2.4.53,3.04,2.75,3.02,5.98-.05,11.97-.07,17.95.09,14.54.37,24.68,11.1,24.3,25.68-.29,11.49-9.78,24.05-25.61,23.94-6.44-.04-12.88.07-19.33-.03-1.96-.03-2.6.69-2.7,2.58-.57,9.95-1.58,19.88-1.49,29.87-.75,2.31-.72,4.67-.47,7.04-.79,9.61-1.42,19.24-1.57,28.89-.81,2.77-.71,5.58-.48,8.41.23,24.3,16.79,46.53,44.03,49.1,2.56.95,5.12.93,7.68,0,47.64-3.44,95.19-7.95,143.04-12-.85-1.65-2.04-1.94-2.96-2.56Zm74.29-381.99s.01,0,.02,0c2.1-6.57,4.28-13.12,6.65-19.63.61-1.68,3.14-1.16,3.04.62-.37,6.94-.96,13.86-1.62,20.76,1.4.44,2.78.94,4.12,1.51,2.72-4.28,5.48-8.53,8.37-12.72.93-1.35,3.05-.31,2.56,1.25-1.54,4.87-3.22,9.69-4.94,14.49,1.28.76,2.52,1.58,3.71,2.46,5.11-4.83,10.28-9.59,15.61-14.22,1.35-1.17,3.31.5,2.36,2.02-3.76,6-7.69,11.86-11.7,17.68.86.9,1.7,1.82,2.49,2.79,4.51-2.51,9.04-4.98,13.65-7.34,1.46-.75,2.83,1.18,1.65,2.32-3.72,3.6-7.54,7.08-11.39,10.54.75,1.24,1.45,2.52,2.09,3.83,6.87-1.83,13.76-3.58,20.72-5.13,1.75-.39,2.67,2.01,1.11,2.9-5.63,3.19-11.34,6.2-17.07,9.16l-4.89,2.52c-4.64-17.27-19.5-30.37-37.67-32.45l1.11-3.35Zm-6.17,4.63c23.55,0,42.65,19.09,42.65,42.65s-19.09,42.65-42.65,42.65-42.64-19.09-42.64-42.65,19.09-42.65,42.64-42.65Z"/>
  <path class="cls-1" d="m309.78,153.12c18.77,0,34.04-15.27,34.04-34.04s-15.27-34.04-34.04-34.04-34.04,15.27-34.04,34.04,15.27,34.04,34.04,34.04Z"/>
  <path class="cls-1" d="m472.46,415.94c.93-7.88-2.64-13.24-9.39-16.82-2.27-1.2-3.23-3-3.07-5.6.27-4.37-.04-8.7-.58-13.06-4.48-36.17-25.33-59.79-57.22-75.03-2.02-.97-3.01-.35-3.41,1.65-.61,3.04-.87,6.19-1.83,9.11-.91,2.77.18,3.88,2.4,5.08,7.71,4.18,14.99,9.09,21.1,15.4,17.35,17.91,25.37,39.54,25.12,64.39-.03,2.48-1.45,5.31.19,7.38,1.56,1.96,4.54,1.98,6.87,2.91,3.76,1.51,4.82,3.1,4.57,7.05-.19,2.99-1.56,5.07-4.15,6.69-10.71,6.69-22.39,11.17-34.4,14.69-17.56,5.14-35.76,6.39-53.89,7.62-9.62.65-19.32.04-28.98,0-2.3-.77-4.67-.71-7.04-.48-3.21-.27-6.42-.56-9.62-.82-10.67-.88-21.21-2.6-31.58-5.23-3.81-.97-5.47-3.14-4.89-5.92.72-3.45,3.47-3.55,6.2-3.49,3.34.07,6.67.21,10.01.31,2.58.08,4.56-1.03,5.48-3.38,2.13-5.43-.38-9.78-6.11-10.89-.79-.15-1.59-.25-2.38-.4-9.13-1.72-18.42-2.75-27.27-5.73-4.81-1.62-5.03-2.25-4.51-7.35,1.59-15.61,5.84-30.4,13.8-44.01,6.38-10.91,14.35-20.52,23.91-28.8,1.56-1.35,2.97-2.08,3.71.72.2.78.39,1.56.56,2.34,2.1,9.88,4.19,19.76,6.32,29.64.45,2.09,1.39,3.93,3.61,4.67,5.66,1.89,11.13-2.36,10.15-8.18-2.95-17.44-6.12-34.84-9.17-52.26-.5-2.88-1.98-2.47-3.93-1.45-38.19,20.07-60.41,50.9-63.67,94.5-.15,2.07-.73,3.46-2.92,4.51-3.8,1.82-7.92,3.89-9.34,8.2-3.4,10.36-2.36,20.65,7.66,27.18,5.21,3.39,10.68,6.29,16.49,8.51,21.72,8.3,44.39,11.45,67.45,12.53,3.47.94,6.99.65,10.5.46,7.55,0,15.11,0,22.66-.01,0,0,0,0,0,0h0c2.61.27,5.2.44,7.74-.47,10.66-.17,21.23-1.27,31.76-2.86,20.39-3.07,39.88-8.72,57.69-19.47,8.64-5.21,14.67-11.85,13.41-22.84-.04-.34-.03-.69.01-1.03Z"/>
  <path class="cls-1" d="m383.88,285.89c-6.33-1.77-12.86-2.12-19.33-2.65-10.97-.9-21.82.42-32.45,3.18-5.8,1.51-7.57,4.6-6.59,10.56,5.4,32.61,10.81,65.22,16.25,97.82.95,5.7,1.86,6.39,7.72,6.4.69,0,1.38-.05,2.07-.08,3.56.04,7.13.2,10.69.08,2.7-.09,5.49.76,8.1-.57,2.96-.58,3.57-2.91,3.97-5.37,1.31-8.16,2.56-16.33,3.89-24.48,4.07-24.92,8.17-49.83,12.24-74.75.93-5.69-1.01-8.6-6.56-10.15Z"/>
  <path class="cls-1" d="m77.01,330.79c7.19-.02,12.66-5.16,12.88-12.06.24-7.73-4.78-13.94-12.04-14.07-12.65-.23-25.31-.06-37.97-.03-.79,0-1.59.21-2.38.38-7.11,1.47-10.76,6.76-10.03,14.51.62,6.48,5.9,11.24,12.6,11.28,6.1.04,12.2,0,18.3,0,6.21,0,12.43.02,18.64,0Z"/>
  <path class="cls-1" d="m40.86,250.04c12.76.17,25.53.1,38.3,0,3.68-.03,6.95-1.33,9.41-4.29,5.93-7.16,3.16-18.62-5.19-21.06-2.6-.76-5.43.04-8.06-.83-11.38-.02-22.76-.05-34.14-.04-.66,0-1.31.32-1.97.48-6.97.96-11.1,5.95-10.88,13.14.22,7.02,5.41,12.5,12.53,12.6Z"/>
</svg>